<svg xmlns="http://www.w3.org/2000/svg" width="10.715" height="19.819" viewBox="0 0 10.715 19.819">
  <g id="facebook-logo" transform="translate(-0.016)">
    <path id="Path" d="M10.312,0,7.742,0A4.514,4.514,0,0,0,2.988,4.878V7.126H.4a.4.4,0,0,0-.4.4v3.258a.4.4,0,0,0,.4.4H2.988v8.222a.4.4,0,0,0,.4.4H6.764a.4.4,0,0,0,.4-.4V11.193h3.021a.4.4,0,0,0,.4-.4V7.531a.4.4,0,0,0-.4-.4H7.168V5.22c0-.916.218-1.381,1.412-1.381h1.731a.4.4,0,0,0,.4-.4V.408A.4.4,0,0,0,10.312,0Z" transform="translate(0.016)" fill="#fff"/>
  </g>
</svg>