<svg id="instagram" xmlns="http://www.w3.org/2000/svg" width="20" height="20" viewBox="0 0 20 20">
  <path id="Shape" d="M13.75,20H6.25A6.257,6.257,0,0,1,0,13.75V6.25A6.257,6.257,0,0,1,6.25,0h7.5A6.257,6.257,0,0,1,20,6.25v7.5A6.257,6.257,0,0,1,13.75,20ZM6.25,1.875A4.38,4.38,0,0,0,1.875,6.25v7.5A4.38,4.38,0,0,0,6.25,18.125h7.5a4.38,4.38,0,0,0,4.375-4.375V6.25A4.38,4.38,0,0,0,13.75,1.875Z" fill="#fff"/>
  <path id="Shape-2" data-name="Shape" d="M5,10a5,5,0,1,1,5-5A5.006,5.006,0,0,1,5,10ZM5,1.875A3.125,3.125,0,1,0,8.125,5,3.129,3.129,0,0,0,5,1.875Z" transform="translate(5 5)" fill="#fff"/>
  <circle id="Oval" cx="0.666" cy="0.666" r="0.666" transform="translate(14.709 3.959)" fill="#fff"/>
</svg>