<svg xmlns="http://www.w3.org/2000/svg" width="19.998" height="20" viewBox="0 0 19.998 20">
  <g id="snapchat" transform="translate(-0.001 0)">
    <path id="Combined_Shape" data-name="Combined Shape" d="M10,20a60.8,60.8,0,0,1-6.423-.342A3.644,3.644,0,0,1,.342,16.422a60.655,60.655,0,0,1,0-12.845A3.644,3.644,0,0,1,3.578.342a60.435,60.435,0,0,1,12.845,0,3.644,3.644,0,0,1,3.236,3.236,60.655,60.655,0,0,1,0,12.845,3.643,3.643,0,0,1-3.236,3.236A60.777,60.777,0,0,1,10,20Zm-.017-3.94h.032l.067,0a2.829,2.829,0,0,0,1.732-.684,2.521,2.521,0,0,1,1-.511,3.315,3.315,0,0,1,.526-.044,3.6,3.6,0,0,1,.729.077,1.53,1.53,0,0,0,.272.034h.014a.161.161,0,0,0,.174-.13c.031-.1.054-.206.074-.3.059-.272.1-.4.2-.416,1.214-.188,1.561-.443,1.639-.623a.239.239,0,0,0,.019-.078.138.138,0,0,0-.114-.143,3.989,3.989,0,0,1-2.737-2.294l0-.007a.709.709,0,0,1-.067-.6c.128-.3.545-.434.821-.521l.028-.009c.058-.018.112-.036.155-.053.483-.191.582-.386.58-.515a.411.411,0,0,0-.313-.335.589.589,0,0,0-.228-.045.48.48,0,0,0-.194.039,1.662,1.662,0,0,1-.626.174A.538.538,0,0,1,13.4,8.96c.006-.114.014-.234.022-.356l0-.039a6.531,6.531,0,0,0-.154-2.6,3.381,3.381,0,0,0-3.139-2.021H10.1l-.229,0A3.374,3.374,0,0,0,6.734,5.962a6.51,6.51,0,0,0-.155,2.6l.008.132c.006.089.011.177.015.262a.56.56,0,0,1-.4.127,1.613,1.613,0,0,1-.665-.175.353.353,0,0,0-.15-.03.521.521,0,0,0-.507.329c-.022.114.022.338.575.556.044.017.1.034.155.052l.028.009c.277.088.694.222.822.522a.709.709,0,0,1-.067.6l0,.007a4.047,4.047,0,0,1-2.737,2.3.136.136,0,0,0-.114.142.249.249,0,0,0,.018.077c.078.182.426.438,1.639.625.1.016.143.169.2.418.02.091.042.195.073.3a.171.171,0,0,0,.189.134,1.627,1.627,0,0,0,.27-.038,3.556,3.556,0,0,1,.731-.083,3.216,3.216,0,0,1,.526.045,2.512,2.512,0,0,1,1,.509l0,0a2.823,2.823,0,0,0,1.728.681l.045,0Z" transform="translate(0 0)" fill="#fff"/>
    <path id="Path" d="M17.443,3.174A3.232,3.232,0,0,0,14.573.3a53.625,53.625,0,0,0-11.4,0A3.232,3.232,0,0,0,.3,3.174a53.624,53.624,0,0,0,0,11.4,3.232,3.232,0,0,0,2.871,2.871,53.609,53.609,0,0,0,11.4,0,3.231,3.231,0,0,0,2.871-2.871A53.609,53.609,0,0,0,17.443,3.174Z" transform="translate(1.126 1.126)" fill="none"/>
    <path id="Path-2" data-name="Path" d="M0,0Q.021.207.043.415A3.642,3.642,0,0,0,3.278,3.65a60.4,60.4,0,0,0,12.845,0A3.642,3.642,0,0,0,19.358.415Q19.38.207,19.4,0Z" transform="translate(0.3 16.008)" fill="none"/>
    <path id="Path-3" data-name="Path" d="M16.253,12.621q.229-2.142.3-4.3L9.352,1.121A3.617,3.617,0,0,0,6.723,0H6.69L6.462,0A3.51,3.51,0,0,0,3.2,2.1a6.6,6.6,0,0,0-.166,2.666c.007.106.014.215.02.321a.526.526,0,0,1-.257.056,1.476,1.476,0,0,1-.607-.162.488.488,0,0,0-.209-.043.655.655,0,0,0-.641.441c-.026.139.012.324.272.507.043.069,1.151,1.179,1.232,1.242A3.847,3.847,0,0,1,.229,9.312.274.274,0,0,0,0,9.6.366.366,0,0,0,.03,9.72a.619.619,0,0,0,.235.258l6.22,6.22a60.466,60.466,0,0,0,6.533-.342,3.642,3.642,0,0,0,3.235-3.235Z" transform="translate(3.405 3.801)" fill="none"/>
    <path id="Shape" d="M6.676,12.4l-.077,0H6.58l-.067,0A2.976,2.976,0,0,1,4.7,11.69a2.373,2.373,0,0,0-.945-.488,3.029,3.029,0,0,0-.5-.043,3.479,3.479,0,0,0-.691.078l-.012,0H2.544a1.618,1.618,0,0,1-.292.041.3.3,0,0,1-.32-.233c-.03-.1-.051-.2-.071-.287l0-.022,0-.009a1.257,1.257,0,0,0-.091-.3C.731,10.265.164,10.034.03,9.72A.358.358,0,0,1,0,9.6a.274.274,0,0,1,.23-.285A3.841,3.841,0,0,0,2.863,7.1l.005-.013A.585.585,0,0,0,2.932,6.6c-.1-.244-.485-.365-.737-.445-.058-.018-.132-.041-.192-.065-.611-.241-.7-.518-.66-.708a.655.655,0,0,1,.641-.441.481.481,0,0,1,.209.043,1.488,1.488,0,0,0,.607.162.537.537,0,0,0,.257-.056c0-.055-.007-.112-.01-.168l-.009-.153A6.588,6.588,0,0,1,3.2,2.1,3.511,3.511,0,0,1,6.462,0L6.69,0h.032A3.516,3.516,0,0,1,9.986,2.1a6.588,6.588,0,0,1,.167,2.668l0,.038c-.005.084-.01.166-.015.246l0,.037a.522.522,0,0,0,.221.055,1.55,1.55,0,0,0,.569-.162.607.607,0,0,1,.252-.05.731.731,0,0,1,.275.052.536.536,0,0,1,.4.461c0,.251-.22.468-.667.644-.048.019-.105.037-.166.057L11,6.157c-.252.08-.633.2-.737.445a.582.582,0,0,0,.063.482l0,.006,0,.007a3.864,3.864,0,0,0,2.633,2.214.272.272,0,0,1,.229.285.37.37,0,0,1-.03.123c-.134.312-.7.543-1.735.7a1.282,1.282,0,0,0-.092.31c-.021.093-.044.2-.076.306a.3.3,0,0,1-.305.229h-.015a1.585,1.585,0,0,1-.3-.037,3.519,3.519,0,0,0-.7-.075,3.16,3.16,0,0,0-.5.043,2.38,2.38,0,0,0-.943.487A2.982,2.982,0,0,1,6.676,12.4Zm-.109-.276h.016l.093,0a2.715,2.715,0,0,0,1.652-.657,2.622,2.622,0,0,1,1.06-.535,3.361,3.361,0,0,1,.548-.046,3.759,3.759,0,0,1,.755.079,1.42,1.42,0,0,0,.246.032h.015c.033,0,.033,0,.042-.032.029-.1.05-.19.07-.281v-.007c.057-.263.107-.49.31-.521,1.292-.2,1.5-.466,1.534-.543a.091.091,0,0,0,.008-.031,4.1,4.1,0,0,1-2.841-2.376.84.84,0,0,1-.069-.711c.152-.359.6-.5.9-.6l.049-.016c.051-.016.094-.03.129-.044.461-.183.494-.341.493-.385,0-.077-.093-.163-.223-.21l-.008,0a.453.453,0,0,0-.172-.032.326.326,0,0,0-.137.025,1.809,1.809,0,0,1-.68.187h-.01a.665.665,0,0,1-.46-.173l-.036-.041,0-.055c.007-.132.015-.266.023-.4a6.466,6.466,0,0,0-.142-2.54A3.247,3.247,0,0,0,6.722.274H6.693l-.231,0a3.241,3.241,0,0,0-3.009,1.94A6.449,6.449,0,0,0,3.31,4.755c.009.133.017.266.024.4l0,.055L3.3,5.248a.681.681,0,0,1-.5.174,1.749,1.749,0,0,1-.723-.188.218.218,0,0,0-.094-.017c-.164,0-.352.11-.373.219-.018.093.1.248.492.4.038.015.087.031.143.048l.03.009.006,0c.3.1.749.24.9.6a.844.844,0,0,1-.07.711A4.172,4.172,0,0,1,.274,9.582a.1.1,0,0,0,.008.031c.033.077.239.343,1.534.543.2.032.252.259.31.523l.005.025c.019.087.038.176.065.266.01.034.011.037.058.037A1.532,1.532,0,0,0,2.5,10.97a3.7,3.7,0,0,1,.755-.085,3.382,3.382,0,0,1,.549.046,2.611,2.611,0,0,1,1.056.533,2.723,2.723,0,0,0,1.655.66Z" transform="translate(3.405 3.801)" fill="none"/>
  </g>
</svg>