<svg id="youtube" xmlns="http://www.w3.org/2000/svg" width="19.967" height="13.98" viewBox="0 0 19.967 13.98">
  <path id="Combined_Shape" data-name="Combined Shape" d="M9.984,13.98c-.062,0-6.252,0-7.813-.427a2.5,2.5,0,0,1-1.76-1.76A26.4,26.4,0,0,1,0,6.99a26.489,26.489,0,0,1,.411-4.8A2.56,2.56,0,0,1,2.171.411C3.715,0,9.92,0,9.983,0S16.251,0,17.8.428a2.5,2.5,0,0,1,1.759,1.76,25.184,25.184,0,0,1,.411,4.819,26.494,26.494,0,0,1-.411,4.8,2.5,2.5,0,0,1-1.759,1.76C16.251,13.975,10.046,13.98,9.984,13.98ZM7.993,4V9.984l5.2-2.993Z" transform="translate(0 0)" fill="#fff"/>
</svg>